# xmcd
#
# Track frame offsets: 
#        150
#        12164
#        33819
#        53054
#        69271
#        82125
#        95626
#        112735
#        129044
#        143968
#        171092
#
# Disc length: 2450 seconds
#
# Revision: 0
# Processed by: cddbd v1.5.2PL0 Copyright (c) Steve Scherf et al.
# Submitted via: ExactAudioCopyFreeDBPlugin 1.0
#
DISCID=8209900b
DTITLE=The Dirt Farmers - Dirt on the Tracks
DYEAR=2015
DGENRE=Bluegrass
TTITLE0=Silver Bullet
TTITLE1=Wait for Me
TTITLE2=Red Clay Halo
TTITLE3=Hopin'
TTITLE4=Love Will Be My Guide
TTITLE5=Beartrap
TTITLE6=Brokenhearted Dreams
TTITLE7=Cold on the Shoulder
TTITLE8=Montana Moonshine
TTITLE9=Memory of You
TTITLE10=Havin' a Good Time
EXTD=
EXTT0=
EXTT1=
EXTT2=
EXTT3=
EXTT4=
EXTT5=
EXTT6=
EXTT7=
EXTT8=
EXTT9=
EXTT10=
PLAYORDER=
